<svg width="12" height="12" viewBox="0 0 12 12" fill="none" xmlns="http://www.w3.org/2000/svg">
<path d="M1 6C1 4.11438 1 3.17157 1.58579 2.58579C2.17157 2 3.11438 2 5 2H5.75C7.63562 2 8.57843 2 9.16421 2.58579C9.75 3.17157 9.75 4.11438 9.75 6C9.75 7.88562 9.75 8.82843 9.16421 9.41421C8.57843 10 7.63562 10 5.75 10H5C3.11438 10 2.17157 10 1.58579 9.41421C1 8.82843 1 7.88562 1 6Z" stroke="#006FBA"/>
<path d="M10 5C10.4714 5 10.7071 5 10.8536 5.14645C11 5.29289 11 5.5286 11 6C11 6.4714 11 6.70711 10.8536 6.85355C10.7071 7 10.4714 7 10 7V5Z" stroke="#006FBA"/>
<path d="M5.75 4.5L4.5 6H6.25L5 7.5" stroke="#006FBA" stroke-linecap="round" stroke-linejoin="round"/>
</svg>
