<svg width="12" height="12" viewBox="0 0 12 12" fill="none" xmlns="http://www.w3.org/2000/svg">
  <path
    d="M6 9.18182C5.911 9.18182 5.824 9.15516 5.74999 9.10521C5.67599 9.05527 5.61831 8.98428 5.58425 8.90122C5.55019 8.81816 5.54128 8.72677 5.55865 8.6386C5.57601 8.55042 5.61887 8.46943 5.6818 8.40586C5.74474 8.34229 5.82492 8.299 5.91221 8.28146C5.9995 8.26392 6.08998 8.27292 6.17221 8.30733C6.25443 8.34173 6.32471 8.39999 6.37416 8.47474C6.42361 8.54949 6.45 8.63737 6.45 8.72727C6.45 8.84783 6.40259 8.96344 6.3182 9.04869C6.23381 9.13393 6.11935 9.18182 6 9.18182ZM3.75 9.18182C3.661 9.18182 3.574 9.15516 3.49999 9.10521C3.42599 9.05527 3.36831 8.98428 3.33425 8.90122C3.30019 8.81816 3.29128 8.72677 3.30865 8.6386C3.32601 8.55042 3.36887 8.46943 3.4318 8.40586C3.49474 8.34229 3.57492 8.299 3.66221 8.28146C3.7495 8.26392 3.83998 8.27292 3.92221 8.30733C4.00443 8.34173 4.07472 8.39999 4.12416 8.47474C4.17361 8.54949 4.2 8.63737 4.2 8.72727C4.2 8.84783 4.15259 8.96344 4.0682 9.04869C3.98381 9.13393 3.86935 9.18182 3.75 9.18182ZM3.75 7.36364C3.661 7.36364 3.574 7.33698 3.49999 7.28703C3.42599 7.23709 3.36831 7.1661 3.33425 7.08304C3.30019 6.99998 3.29128 6.90859 3.30865 6.82041C3.32601 6.73224 3.36887 6.65125 3.4318 6.58768C3.49474 6.52411 3.57492 6.48082 3.66221 6.46328C3.7495 6.44574 3.83998 6.45474 3.92221 6.48915C4.00443 6.52355 4.07472 6.58181 4.12416 6.65656C4.17361 6.73131 4.2 6.81919 4.2 6.90909C4.2 7.02964 4.15259 7.14526 4.0682 7.2305C3.98381 7.31575 3.86935 7.36364 3.75 7.36364ZM6 7.36364C5.911 7.36364 5.824 7.33698 5.74999 7.28703C5.67599 7.23709 5.61831 7.1661 5.58425 7.08304C5.55019 6.99998 5.54128 6.90859 5.55865 6.82041C5.57601 6.73224 5.61887 6.65125 5.6818 6.58768C5.74474 6.52411 5.82492 6.48082 5.91221 6.46328C5.9995 6.44574 6.08998 6.45474 6.17221 6.48915C6.25443 6.52355 6.32471 6.58181 6.37416 6.65656C6.42361 6.73131 6.45 6.81919 6.45 6.90909C6.45 7.02964 6.40259 7.14526 6.3182 7.2305C6.23381 7.31575 6.11935 7.36364 6 7.36364ZM2.85 1.90909H3.3V1.45455C3.3 1.33399 3.34741 1.21838 3.4318 1.13313C3.51619 1.04789 3.63065 1 3.75 1C3.86935 1 3.98381 1.04789 4.0682 1.13313C4.15259 1.21838 4.2 1.33399 4.2 1.45455V1.90909H7.8V1.45455C7.8 1.33399 7.84741 1.21838 7.9318 1.13313C8.01619 1.04789 8.13065 1 8.25 1C8.36935 1 8.48381 1.04789 8.5682 1.13313C8.65259 1.21838 8.7 1.33399 8.7 1.45455V1.90909H9.15C9.50804 1.90909 9.85142 2.05276 10.1046 2.30849C10.3578 2.56422 10.5 2.91107 10.5 3.27273V9.63636C10.5 9.99802 10.3578 10.3449 10.1046 10.6006C9.85142 10.8563 9.50804 11 9.15 11H2.85C2.49196 11 2.14858 10.8563 1.89541 10.6006C1.64223 10.3449 1.5 9.99802 1.5 9.63636V3.27273C1.5 2.91107 1.64223 2.56422 1.89541 2.30849C2.14858 2.05276 2.49196 1.90909 2.85 1.90909ZM2.4 9.63636C2.4 9.75692 2.44741 9.87253 2.5318 9.95778C2.61619 10.043 2.73065 10.0909 2.85 10.0909H9.15C9.26935 10.0909 9.38381 10.043 9.4682 9.95778C9.55259 9.87253 9.6 9.75692 9.6 9.63636V5.54545H2.4V9.63636ZM2.4 4.63636H9.6V3.27273C9.6 3.15217 9.55259 3.03656 9.4682 2.95132C9.38381 2.86607 9.26935 2.81818 9.15 2.81818H8.7V3.27273C8.7 3.39328 8.65259 3.5089 8.5682 3.59414C8.48381 3.67938 8.36935 3.72727 8.25 3.72727C8.13065 3.72727 8.01619 3.67938 7.9318 3.59414C7.84741 3.5089 7.8 3.39328 7.8 3.27273V2.81818H4.2V3.27273C4.2 3.39328 4.15259 3.5089 4.0682 3.59414C3.98381 3.67938 3.86935 3.72727 3.75 3.72727C3.63065 3.72727 3.51619 3.67938 3.4318 3.59414C3.34741 3.5089 3.3 3.39328 3.3 3.27273V2.81818H2.85C2.73065 2.81818 2.61619 2.86607 2.5318 2.95132C2.44741 3.03656 2.4 3.15217 2.4 3.27273V4.63636ZM8.25 7.36364C8.161 7.36364 8.074 7.33698 7.99999 7.28703C7.92599 7.23709 7.86831 7.1661 7.83425 7.08304C7.80019 6.99998 7.79128 6.90859 7.80865 6.82041C7.82601 6.73224 7.86887 6.65125 7.9318 6.58768C7.99474 6.52411 8.07492 6.48082 8.16221 6.46328C8.2495 6.44574 8.33998 6.45474 8.42221 6.48915C8.50443 6.52355 8.57471 6.58181 8.62416 6.65656C8.67361 6.73131 8.7 6.81919 8.7 6.90909C8.7 7.02964 8.65259 7.14526 8.5682 7.2305C8.48381 7.31575 8.36935 7.36364 8.25 7.36364ZM8.25 9.18182C8.161 9.18182 8.074 9.15516 7.99999 9.10521C7.92599 9.05527 7.86831 8.98428 7.83425 8.90122C7.80019 8.81816 7.79128 8.72677 7.80865 8.6386C7.82601 8.55042 7.86887 8.46943 7.9318 8.40586C7.99474 8.34229 8.07492 8.299 8.16221 8.28146C8.2495 8.26392 8.33998 8.27292 8.42221 8.30733C8.50443 8.34173 8.57471 8.39999 8.62416 8.47474C8.67361 8.54949 8.7 8.63737 8.7 8.72727C8.7 8.84783 8.65259 8.96344 8.5682 9.04869C8.48381 9.13393 8.36935 9.18182 8.25 9.18182Z"
    fill="CurrentColor"/>
</svg>
