<svg width="17" height="17" viewBox="0 0 17 17" fill="none" xmlns="http://www.w3.org/2000/svg">
  <path d="M15.0052 15.166H1.67188" stroke="CurrentColor" stroke-linecap="round"/>
  <path
    d="M14.3359 15.166V10.166C14.3359 9.61373 13.8882 9.16602 13.3359 9.16602H11.3359C10.7837 9.16602 10.3359 9.61373 10.3359 10.166V15.166"
    stroke="CurrentColor"/>
  <path
    d="M10.3359 15.1673V3.83398C10.3359 2.89118 10.3359 2.41977 10.043 2.12688C9.75015 1.83398 9.27875 1.83398 8.33594 1.83398C7.39313 1.83398 6.92172 1.83398 6.62883 2.12688C6.33594 2.41977 6.33594 2.89118 6.33594 3.83398V15.1673"
    stroke="CurrentColor"/>
  <path
    d="M6.33594 15.1673V6.83398C6.33594 6.2817 5.88822 5.83398 5.33594 5.83398H3.33594C2.78365 5.83398 2.33594 6.2817 2.33594 6.83398V15.1673"
    stroke="CurrentColor"/>
</svg>
