<svg width="12" height="12" viewBox="0 0 12 12" fill="none" xmlns="http://www.w3.org/2000/svg">
  <path d="M1.93934 10.5578L2.29289 10.2043H2.29289L1.93934 10.5578ZM10.0607 10.5578L9.70711 10.2043L9.70711 10.2043L10.0607 10.5578ZM10.0607 2.43652L10.4142 2.08296V2.08296L10.0607 2.43652ZM5.25 6.50195C4.97386 6.50195 4.75 6.72581 4.75 7.00195C4.75 7.2781 4.97386 7.50195 5.25 7.50195V6.50195ZM8.5 7.50195C8.77614 7.50195 9 7.2781 9 7.00195C9 6.72581 8.77614 6.50195 8.5 6.50195V7.50195ZM3.49805 6.50195C3.2219 6.50195 2.99805 6.72581 2.99805 7.00195C2.99805 7.2781 3.2219 7.50195 3.49805 7.50195V6.50195ZM3.74805 7.50195C4.02419 7.50195 4.24805 7.2781 4.24805 7.00195C4.24805 6.72581 4.02419 6.50195 3.74805 6.50195V7.50195ZM3.49805 4.75C3.2219 4.75 2.99805 4.97386 2.99805 5.25C2.99805 5.52614 3.2219 5.75 3.49805 5.75V4.75ZM3.74805 5.75C4.02419 5.75 4.24805 5.52614 4.24805 5.25C4.24805 4.97386 4.02419 4.75 3.74805 4.75V5.75ZM3.49805 8.24805C3.2219 8.24805 2.99805 8.47191 2.99805 8.74805C2.99805 9.02419 3.2219 9.24805 3.49805 9.24805V8.24805ZM3.74805 9.24805C4.02419 9.24805 4.24805 9.02419 4.24805 8.74805C4.24805 8.47191 4.02419 8.24805 3.74805 8.24805V9.24805ZM5.25 4.75C4.97386 4.75 4.75 4.97386 4.75 5.25C4.75 5.52614 4.97386 5.75 5.25 5.75V4.75ZM8.5 5.75C8.77614 5.75 9 5.52614 9 5.25C9 4.97386 8.77614 4.75 8.5 4.75V5.75ZM5.25 8.24805C4.97386 8.24805 4.75 8.47191 4.75 8.74805C4.75 9.02419 4.97386 9.24805 5.25 9.24805V8.24805ZM8.5 9.24805C8.77614 9.24805 9 9.02419 9 8.74805C9 8.47191 8.77614 8.24805 8.5 8.24805V9.24805ZM10 4.99718V7.99718H11V4.99718H10ZM7.5 10.4972H4.5V11.4972H7.5V10.4972ZM2 7.99718V4.99718H1V7.99718H2ZM4.5 10.4972C3.77876 10.4972 3.28813 10.4961 2.92072 10.4467C2.56769 10.3993 2.40418 10.3156 2.29289 10.2043L1.58579 10.9114C1.91384 11.2394 2.32355 11.3754 2.78747 11.4378C3.237 11.4982 3.80703 11.4972 4.5 11.4972V10.4972ZM1 7.99718C1 8.69015 0.998938 9.26018 1.05938 9.70971C1.12175 10.1736 1.25773 10.5833 1.58579 10.9114L2.29289 10.2043C2.18161 10.093 2.09792 9.92949 2.05046 9.57646C2.00106 9.20905 2 8.71842 2 7.99718H1ZM10 7.99718C10 8.71842 9.99894 9.20905 9.94954 9.57646C9.90208 9.92949 9.81839 10.093 9.70711 10.2043L10.4142 10.9114C10.7423 10.5833 10.8783 10.1736 10.9406 9.70971C11.0011 9.26018 11 8.69015 11 7.99718H10ZM7.5 11.4972C8.19297 11.4972 8.763 11.4982 9.21253 11.4378C9.67645 11.3754 10.0862 11.2394 10.4142 10.9114L9.70711 10.2043C9.59582 10.3156 9.43231 10.3993 9.07928 10.4467C8.71187 10.4961 8.22124 10.4972 7.5 10.4972V11.4972ZM11 4.99718C11 4.30421 11.0011 3.73418 10.9406 3.28465C10.8783 2.82073 10.7423 2.41102 10.4142 2.08296L9.70711 2.79007C9.81839 2.90136 9.90208 3.06487 9.94954 3.41789C9.99894 3.7853 10 4.27594 10 4.99718H11ZM2 4.99718C2 4.27594 2.00106 3.7853 2.05046 3.41789C2.09792 3.06487 2.18161 2.90136 2.29289 2.79007L1.58579 2.08296C1.25773 2.41102 1.12175 2.82073 1.05938 3.28465C0.998938 3.73418 1 4.30421 1 4.99718H2ZM7.99722 2.49804C8.54496 2.50109 8.92198 2.5155 9.20374 2.56725C9.47122 2.61638 9.60884 2.6918 9.70711 2.79007L10.4142 2.08296C10.1283 1.79704 9.77934 1.65625 9.38441 1.58371C9.00377 1.51379 8.54255 1.50106 8.00278 1.49805L7.99722 2.49804ZM3.99722 1.49805C3.45745 1.50106 2.99623 1.51379 2.61559 1.58371C2.22066 1.65625 1.87171 1.79704 1.58579 2.08296L2.29289 2.79007C2.39116 2.6918 2.52878 2.61638 2.79626 2.56725C3.07802 2.5155 3.45504 2.50109 4.00278 2.49804L3.99722 1.49805ZM5.25 7.50195H8.5V6.50195H5.25V7.50195ZM3.49805 7.50195H3.74805V6.50195H3.49805V7.50195ZM3.49805 5.75H3.74805V4.75H3.49805V5.75ZM3.49805 9.24805H3.74805V8.24805H3.49805V9.24805ZM5.25 5.75H8.5V4.75H5.25V5.75ZM5.25 9.24805H8.5V8.24805H5.25V9.24805ZM4.75195 1.50195H7.25195V0.501953H4.75195V1.50195ZM7.50195 1.75195V2.25195H8.50195V1.75195H7.50195ZM7.25195 2.50195H4.75195V3.50195H7.25195V2.50195ZM4.50195 2.25195V1.75195H3.50195V2.25195H4.50195ZM4.75195 2.50195C4.61388 2.50195 4.50195 2.39002 4.50195 2.25195H3.50195C3.50195 2.94231 4.0616 3.50195 4.75195 3.50195V2.50195ZM7.50195 2.25195C7.50195 2.39002 7.39002 2.50195 7.25195 2.50195V3.50195C7.94231 3.50195 8.50195 2.94231 8.50195 2.25195H7.50195ZM7.25195 1.50195C7.39002 1.50195 7.50195 1.61388 7.50195 1.75195H8.50195C8.50195 1.0616 7.94231 0.501953 7.25195 0.501953V1.50195ZM4.75195 0.501953C4.0616 0.501953 3.50195 1.0616 3.50195 1.75195H4.50195C4.50195 1.61388 4.61388 1.50195 4.75195 1.50195V0.501953Z" fill="CurrentColor"/>
</svg>

