<svg width="16" height="16" viewBox="0 0 16 16" fill="none" xmlns="http://www.w3.org/2000/svg">
<path d="M8 13C10.7614 13 13 10.7614 13 8C13 5.23858 10.7614 3 8 3C5.23858 3 3 5.23858 3 8C3 8.79984 3.18781 9.55582 3.52173 10.2262C3.61047 10.4044 3.64001 10.608 3.58856 10.8003L3.29076 11.9133C3.16148 12.3965 3.60351 12.8385 4.08667 12.7092L5.19969 12.4114C5.39197 12.36 5.5956 12.3895 5.77376 12.4783C6.44418 12.8122 7.20016 13 8 13Z" fill="#006FBA" stroke="#006FBA"/>
<path d="M6.5 7.5H9.5" stroke="white" stroke-linecap="round"/>
<path d="M6.5 9.5H7.5" stroke="white" stroke-linecap="round"/>
</svg>
