<svg width="12" height="12" viewBox="0 0 12 12" fill="none" xmlns="http://www.w3.org/2000/svg">
<g clip-path="url(#clip0_11_9516)">
<path d="M6 3.5C6 4.88071 4.88071 6 3.5 6C2.11929 6 1 4.88071 1 3.5C1 2.11929 2.11929 1 3.5 1C4.88071 1 6 2.11929 6 3.5Z" stroke="#006FBA"/>
<path d="M2.5 9L3.5 6M6 3L9 2.5M5.35714 5.30769L9 9" stroke="#006FBA" stroke-linecap="round" stroke-linejoin="round"/>
<path d="M11 2C11 2.55228 10.5523 3 10 3C9.44772 3 9 2.55228 9 2C9 1.44772 9.44772 1 10 1C10.5523 1 11 1.44772 11 2Z" stroke="#006FBA"/>
<path d="M3 10C3 10.5523 2.55228 11 2 11C1.44772 11 1 10.5523 1 10C1 9.44772 1.44772 9 2 9C2.55228 9 3 9.44772 3 10Z" stroke="#006FBA"/>
<path d="M11 10C11 10.5523 10.5523 11 10 11C9.44772 11 9 10.5523 9 10C9 9.44772 9.44772 9 10 9C10.5523 9 11 9.44772 11 10Z" stroke="#006FBA"/>
</g>
<defs>
<clipPath id="clip0_11_9516">
<rect width="12" height="12" fill="white"/>
</clipPath>
</defs>
</svg>
