<svg width="12" height="12" viewBox="0 0 12 12" fill="none" xmlns="http://www.w3.org/2000/svg">
<path d="M10.2461 3H1.74609" stroke="#99A6AD" stroke-linecap="round"/>
<path d="M9.41927 4.24805L9.1893 7.6976C9.1008 9.02506 9.05655 9.68879 8.62405 10.0934C8.19155 10.498 7.52635 10.498 6.19594 10.498H5.80926C4.47886 10.498 3.81366 10.498 3.38116 10.0934C2.94865 9.68879 2.9044 9.02506 2.81591 7.6976L2.58594 4.24805" stroke="#99A6AD" stroke-linecap="round"/>
<path d="M4.74609 5.50195L4.99609 8.00195" stroke="#99A6AD" stroke-linecap="round"/>
<path d="M7.24609 5.50195L6.99609 8.00195" stroke="#99A6AD" stroke-linecap="round"/>
<path d="M3.24609 3C3.27403 3 3.288 3 3.30067 2.99968C3.71239 2.98925 4.07561 2.72745 4.2157 2.34016C4.22001 2.32825 4.22443 2.31499 4.23326 2.28849L4.28181 2.14286C4.32325 2.01854 4.34397 1.95638 4.37145 1.9036C4.4811 1.69304 4.68397 1.54682 4.9184 1.50938C4.97716 1.5 5.04268 1.5 5.17372 1.5H6.81846C6.94951 1.5 7.01503 1.5 7.07379 1.50938C7.30822 1.54682 7.51109 1.69304 7.62074 1.9036C7.64822 1.95638 7.66894 2.01854 7.71038 2.14286L7.75892 2.28849C7.76775 2.31496 7.77218 2.32825 7.77649 2.34016C7.91658 2.72745 8.2798 2.98925 8.69152 2.99968C8.70418 3 8.71815 3 8.74609 3" stroke="#99A6AD"/>
</svg>
