<svg width="12" height="12" viewBox="0 0 12 12" fill="none" xmlns="http://www.w3.org/2000/svg">
  <path d="M7.69842 2.02878L7.36394 2.40042V2.40042L7.69842 2.02878ZM9.67781 3.81023L9.34333 4.18187L9.67781 3.81023ZM10.829 5.079L10.3722 5.28242L10.3722 5.28242L10.829 5.079ZM1.58774 10.4162L1.94129 10.0626L1.94129 10.0626L1.58774 10.4162ZM10.4162 10.4162L10.0626 10.0626L10.0626 10.0626L10.4162 10.4162ZM7.00195 10.502H5.00195V11.502H7.00195V10.502ZM1.50195 7.00195V5.00195H0.501953V7.00195H1.50195ZM10.502 6.7834V7.00195H11.502V6.7834H10.502ZM7.36394 2.40042L9.34333 4.18187L10.0123 3.43858L8.03291 1.65713L7.36394 2.40042ZM11.502 6.7834C11.502 5.95027 11.512 5.3838 11.2857 4.87558L10.3722 5.28242C10.4919 5.55109 10.502 5.86193 10.502 6.7834H11.502ZM9.34333 4.18187C10.0283 4.7983 10.2525 5.01375 10.3722 5.28242L11.2857 4.87558C11.0594 4.36736 10.6316 3.99592 10.0123 3.43858L9.34333 4.18187ZM5.01685 1.50195C5.81721 1.50195 6.08807 1.50967 6.32743 1.60152L6.6857 0.667902C6.23312 0.494234 5.74149 0.501953 5.01685 0.501953V1.50195ZM8.03291 1.65713C7.49689 1.17471 7.1382 0.841543 6.6857 0.667902L6.32743 1.60152C6.56686 1.6934 6.7721 1.86777 7.36394 2.40042L8.03291 1.65713ZM5.00195 10.502C4.04501 10.502 3.3776 10.5009 2.87403 10.4332C2.38485 10.3674 2.1258 10.2471 1.94129 10.0626L1.23419 10.7697C1.63546 11.171 2.14071 11.3436 2.74079 11.4243C3.32647 11.503 4.07328 11.502 5.00195 11.502V10.502ZM0.501953 7.00195C0.501953 7.93063 0.500891 8.67743 0.579635 9.26312C0.660313 9.86319 0.832908 10.3684 1.23419 10.7697L1.94129 10.0626C1.75678 9.8781 1.63649 9.61906 1.57072 9.12987C1.50301 8.62631 1.50195 7.9589 1.50195 7.00195H0.501953ZM7.00195 11.502C7.93063 11.502 8.67743 11.503 9.26312 11.4243C9.86319 11.3436 10.3684 11.171 10.7697 10.7697L10.0626 10.0626C9.8781 10.2471 9.61906 10.3674 9.12987 10.4332C8.62631 10.5009 7.9589 10.502 7.00195 10.502V11.502ZM10.502 7.00195C10.502 7.9589 10.5009 8.62631 10.4332 9.12987C10.3674 9.61906 10.2471 9.8781 10.0626 10.0626L10.7697 10.7697C11.171 10.3684 11.3436 9.86319 11.4243 9.26312C11.503 8.67743 11.502 7.93063 11.502 7.00195H10.502ZM1.50195 5.00195C1.50195 4.04501 1.50301 3.3776 1.57072 2.87403C1.63649 2.38485 1.75678 2.1258 1.94129 1.94129L1.23419 1.23419C0.832908 1.63546 0.660313 2.14071 0.579635 2.74079C0.500891 3.32647 0.501953 4.07328 0.501953 5.00195H1.50195ZM5.01685 0.501953C4.08316 0.501953 3.3328 0.5009 2.74481 0.579595C2.14281 0.660165 1.63585 0.832519 1.23419 1.23419L1.94129 1.94129C2.12541 1.75717 2.38524 1.63663 2.87746 1.57076C3.38369 1.50301 4.05499 1.50195 5.01685 1.50195V0.501953ZM5.99805 1.24805V2.49805H6.99805V1.24805H5.99805ZM8.99805 5.49805H10.998V4.49805H8.99805V5.49805ZM5.99805 2.49805C5.99805 3.07317 5.99698 3.55481 6.04827 3.93626C6.10149 4.3321 6.21917 4.69404 6.51061 4.98548L7.21772 4.27838C7.14304 4.2037 7.07766 4.08796 7.03935 3.80301C6.99911 3.50368 6.99805 3.10144 6.99805 2.49805H5.99805ZM8.99805 4.49805C8.39466 4.49805 7.99241 4.49698 7.69308 4.45674C7.40813 4.41843 7.29239 4.35305 7.21772 4.27838L6.51061 4.98548C6.80205 5.27693 7.164 5.3946 7.55983 5.44782C7.94129 5.49911 8.42293 5.49805 8.99805 5.49805V4.49805Z" fill="CurrentColor"/>
</svg>
