<svg width="16" height="16" viewBox="0 0 16 16" fill="none" xmlns="http://www.w3.org/2000/svg">
  <path d="M2 6.66927C2 4.15511 2 2.89803 2.78105 2.11699C3.5621 1.33594 4.81918 1.33594 7.33333 1.33594H8.66667C11.1808 1.33594 12.4379 1.33594 13.219 2.11699C14 2.89803 14 4.15511 14 6.66927V9.33594C14 11.8501 14 13.1072 13.219 13.8882C12.4379 14.6693 11.1808 14.6693 8.66667 14.6693H7.33333C4.81918 14.6693 3.5621 14.6693 2.78105 13.8882C2 13.1072 2 11.8501 2 9.33594V6.66927Z" stroke="#006FBA"/>
  <path d="M5.33594 8H10.6693" stroke="#006FBA" stroke-linecap="round"/>
  <path d="M5.33594 5.33594H10.6693" stroke="#006FBA" stroke-linecap="round"/>
  <path d="M5.33594 10.6641H8.66927" stroke="#006FBA" stroke-linecap="round"/>
</svg>
