<svg width="16" height="16" viewBox="0 0 16 16" fill="none" xmlns="http://www.w3.org/2000/svg">
<path d="M11 7C12.305 7.00652 13.0118 7.05846 13.4728 7.47226C14 7.94546 14 8.70706 14 10.2303V10.7688C14 12.292 14 13.0536 13.4728 13.5268C12.9456 14 12.0971 14 10.4 14H5.6C3.90294 14 3.05441 14 2.52721 13.5268C2 13.0536 2 12.292 2 10.7688L2 10.2303C2 8.70706 2 7.94546 2.52721 7.47226C2.98824 7.05846 3.69498 7.00652 5 7" stroke="#9EB5C6" stroke-linecap="round"/>
<path d="M8 10L8 2M8 2L10 4.15385M8 2L6 4.15385" stroke="#9EB5C6" stroke-linecap="round" stroke-linejoin="round"/>
</svg>
