<svg width="12" height="12" viewBox="0 0 12 12" fill="none" xmlns="http://www.w3.org/2000/svg">
  <path d="M0 2.96985C0 2.44033 0 2.17557 0.0416101 1.95503C0.224784 0.984185 0.984185 0.224784 1.95503 0.0416101C2.17557 0 2.44033 0 2.96985 0C3.20186 0 3.31786 0 3.42934 0.0104252C3.90999 0.0553718 4.36591 0.244221 4.73757 0.552309C4.82377 0.623769 4.9058 0.705795 5.06985 0.869849L5.4 1.2C5.88947 1.68947 6.1342 1.9342 6.42727 2.09726C6.58826 2.18683 6.75904 2.25756 6.93621 2.30807C7.25874 2.4 7.60484 2.4 8.29706 2.4H8.52126C10.1007 2.4 10.8904 2.4 11.4037 2.86168C11.4509 2.90415 11.4959 2.94908 11.5383 2.9963C12 3.50961 12 4.29932 12 5.87874V7.2C12 9.46274 12 10.5941 11.2971 11.2971C10.5941 12 9.46274 12 7.2 12H4.8C2.53726 12 1.40589 12 0.702944 11.2971C0 10.5941 0 9.46274 0 7.2V2.96985Z" fill="#002033" fill-opacity="0.3"/>
</svg>
