<svg width="12" height="12" viewBox="0 0 12 12" fill="none" xmlns="http://www.w3.org/2000/svg">
<path d="M9.5 1.5H2.5C1.79289 1.5 1.43934 1.5 1.21967 1.7061C1 1.9122 1 2.24391 1 2.90733V3.25224C1 3.77116 1 4.03062 1.1298 4.24571C1.2596 4.4608 1.49674 4.59429 1.97101 4.86127L3.42752 5.68119C3.74573 5.86032 3.90483 5.94989 4.01876 6.04879C4.25599 6.25475 4.40204 6.49676 4.46822 6.79358C4.5 6.93612 4.5 7.1029 4.5 7.43647L4.5 8.77121C4.5 9.22598 4.5 9.45337 4.62596 9.63064C4.75192 9.80791 4.97564 9.89537 5.42308 10.0703C6.36239 10.4375 6.83205 10.6211 7.16603 10.4122C7.5 10.2033 7.5 9.72593 7.5 8.77121V7.43647C7.5 7.1029 7.5 6.93612 7.53178 6.79358C7.59796 6.49676 7.74401 6.25475 7.98124 6.04879C8.09516 5.94989 8.25427 5.86032 8.57248 5.68119L10.029 4.86127C10.5033 4.59429 10.7404 4.4608 10.8702 4.24571C11 4.03062 11 3.77116 11 3.25224V2.90733C11 2.24391 11 1.9122 10.7803 1.7061C10.5607 1.5 10.2071 1.5 9.5 1.5Z" stroke="#006FBA"/>
</svg>
