<svg width="20" height="20" viewBox="0 0 20 20" fill="none" xmlns="http://www.w3.org/2000/svg">
  <path d="M17.5 10.8337V7.50051C17.5 5.14348 17.5 3.96497 16.7678 3.23274C16.1274 2.59242 15.1459 2.51204 13.3333 2.50195H6.66667C4.85414 2.51204 3.87255 2.59242 3.23223 3.23274C2.5 3.96497 2.5 5.14348 2.5 7.5005V12.5005C2.5 14.8575 2.5 16.036 3.23223 16.7683C3.96447 17.5005 5.14298 17.5005 7.5 17.5005L10.8333 17.5003" stroke="CurrentColor" stroke-width="1.5" stroke-linecap="round"/>
  <path d="M8.75 10L14.1667 10" stroke="CurrentColor" stroke-width="1.5" stroke-linecap="round"/>
  <path d="M5.82812 10.001H6.24479" stroke="CurrentColor" stroke-width="1.5" stroke-linecap="round"/>
  <path d="M5.82812 7.08301H6.24479" stroke="CurrentColor" stroke-width="1.5" stroke-linecap="round"/>
  <path d="M5.82812 12.916H6.24479" stroke="CurrentColor" stroke-width="1.5" stroke-linecap="round"/>
  <path d="M8.75 7.08301H14.1667" stroke="CurrentColor" stroke-width="1.5" stroke-linecap="round"/>
  <path d="M8.75 12.917H10.8333" stroke="CurrentColor" stroke-width="1.5" stroke-linecap="round"/>
  <path d="M14.9445 17.3889C16.2945 17.3889 17.3889 16.2945 17.3889 14.9445C17.3889 13.5944 16.2945 12.5 14.9445 12.5C13.5944 12.5 12.5 13.5944 12.5 14.9445C12.5 16.2945 13.5944 17.3889 14.9445 17.3889Z" stroke="CurrentColor" stroke-width="1.5" stroke-linecap="round" stroke-linejoin="round"/>
  <path d="M17.8459 17.8469L17.082 17.083" stroke="CurrentColor" stroke-width="1.5" stroke-linecap="round" stroke-linejoin="round"/>
</svg>
