<svg width="16" height="17" viewBox="0 0 16 17" fill="none" xmlns="http://www.w3.org/2000/svg">
  <path d="M8 5.83301V8.49967L9.66667 10.1663" stroke="CurrentColor" stroke-linecap="round" stroke-linejoin="round"/>
  <path
    d="M3.73609 4.23609L3.38254 3.88254L3.73609 4.23609ZM2.89184 5.08035L2.39185 5.08286C2.39322 5.35704 2.61515 5.57896 2.88933 5.58034L2.89184 5.08035ZM4.58636 5.58887C4.8625 5.59026 5.08748 5.36753 5.08887 5.09139C5.09026 4.81525 4.86753 4.59027 4.59139 4.58888L4.58636 5.58887ZM3.38331 3.3808C3.38192 3.10466 3.15694 2.88193 2.8808 2.88332C2.60466 2.88471 2.38193 3.10969 2.38332 3.38583L3.38331 3.3808ZM2.55107 7.68995C2.58857 7.41636 2.39719 7.16418 2.1236 7.12668C1.85002 7.08918 1.59783 7.28056 1.56033 7.55415L2.55107 7.68995ZM12.5748 3.92518C10.028 1.37839 5.91249 1.35259 3.38254 3.88254L4.08965 4.58965C6.22239 2.45691 9.70473 2.4693 11.8677 4.63229L12.5748 3.92518ZM3.42518 13.0748C5.97197 15.6216 10.0875 15.6474 12.6175 13.1175L11.9104 12.4104C9.77761 14.5431 6.29527 14.5307 4.13229 12.3677L3.42518 13.0748ZM12.6175 13.1175C15.1474 10.5875 15.1216 6.47197 12.5748 3.92518L11.8677 4.63229C14.0307 6.79527 14.0431 10.2776 11.9104 12.4104L12.6175 13.1175ZM3.38254 3.88254L2.53829 4.72679L3.24539 5.4339L4.08965 4.58965L3.38254 3.88254ZM2.88933 5.58034L4.58636 5.58887L4.59139 4.58888L2.89435 4.58035L2.88933 5.58034ZM3.39183 5.07783L3.38331 3.3808L2.38332 3.38583L2.39185 5.08286L3.39183 5.07783ZM1.56033 7.55415C1.29271 9.50661 1.91595 11.5656 3.42518 13.0748L4.13229 12.3677C2.8519 11.0873 2.32442 9.34348 2.55107 7.68995L1.56033 7.55415Z"
    fill="CurrentColor"/>
</svg>
