<svg width="16" height="16" viewBox="0 0 16 16" fill="none" xmlns="http://www.w3.org/2000/svg">
  <g clip-path="url(#clip0_4_848)">
    <path
      d="M3.15493 10.7576C2.12457 9.72724 1.60939 9.21206 1.4177 8.54366C1.226 7.87525 1.38983 7.16534 1.71748 5.74551L1.90643 4.92672C2.18209 3.73221 2.31991 3.13496 2.7289 2.72597C3.13789 2.31698 3.73514 2.17916 4.92965 1.9035L5.74844 1.71455C7.16827 1.3869 7.87818 1.22307 8.54659 1.41477C9.21499 1.60646 9.73017 2.12164 10.7605 3.152L11.9803 4.37175C13.7729 6.16441 14.6693 7.06074 14.6693 8.17455C14.6693 9.28837 13.7729 10.1847 11.9803 11.9774C10.1876 13.77 9.2913 14.6663 8.17748 14.6663C7.06367 14.6663 6.16734 13.77 4.37468 11.9774L3.15493 10.7576Z"
      stroke="#0078D2"/>
    <circle cx="5.73718" cy="5.91895" r="1.33333" transform="rotate(-45 5.73718 5.91895)" stroke="#0078D2"/>
    <path d="M7.69548 12.333L12.3481 7.68018" stroke="#0078D2" stroke-linecap="round"/>
  </g>
  <defs>
    <clipPath id="clip0_4_848">
      <rect width="16" height="16" fill="white"/>
    </clipPath>
  </defs>
</svg>
