<svg width="14" height="12" viewBox="0 0 14 12" fill="none" xmlns="http://www.w3.org/2000/svg">
  <path
    d="M6.33333 0.666016H9.53346C10.2802 0.666016 10.6534 0.666016 10.9386 0.81134C11.1895 0.939171 11.3937 1.143 11.5215 1.39388C11.6667 1.67882 11.6667 2.05201 11.6667 2.79729V3.99948L6.33337 3.99941M6.33333 0.666016H3.13346C2.38673 0.666016 2.01308 0.666016 1.72786 0.81134C1.47698 0.939171 1.27316 1.143 1.14532 1.39388C1 1.6791 1 2.05274 1 2.79948V3.99935M6.33333 0.666016L6.33337 3.99941M1 3.99935V7.99935M1 3.99935L6.33337 3.99941M1 7.99935V9.19948C1 9.94622 1 10.3194 1.14532 10.6046C1.27316 10.8555 1.47698 11.0597 1.72786 11.1875C2.0128 11.3327 2.386 11.3327 3.13127 11.3327H6.33346L6.33337 3.99941M1 7.99935H6.33333M9 8.66602H11M11 8.66602H13M11 8.66602V10.666M11 8.66602V6.66602"
    stroke="#9EB5C6" stroke-linecap="round" stroke-linejoin="round"/>
</svg>