<svg width="12" height="12" viewBox="0 0 11 11" fill="none" xmlns="http://www.w3.org/2000/svg">
  <path
    d="M5.5 0C2.46272 0 0 2.46272 0 5.5C0 8.53728 2.46272 11 5.5 11C8.53728 11 11 8.53728 11 5.5C11 2.46272 8.53728 0 5.5 0ZM5.5 10.067C2.97835 10.067 0.933036 8.02165 0.933036 5.5C0.933036 2.97835 2.97835 0.933036 5.5 0.933036C8.02165 0.933036 10.067 2.97835 10.067 5.5C10.067 8.02165 8.02165 10.067 5.5 10.067Z"
    fill="CurrentColor" />
  <path
    d="M6.57175 8.17756L6.64999 7.815C6.60949 7.83656 6.5442 7.8612 6.45467 7.88924C6.36489 7.91729 6.28409 7.93157 6.21308 7.93157C6.06182 7.93157 5.95533 7.90347 5.8935 7.84697C5.83212 7.79048 5.80151 7.68421 5.80151 7.52856C5.80151 7.46689 5.81075 7.37495 5.83007 7.25463C5.84879 7.13351 5.87032 7.02587 5.89425 6.93172L6.18633 5.75949C6.21494 5.65191 6.23456 5.53363 6.2451 5.40455C6.25589 5.27575 6.26091 5.18563 6.26091 5.13449C6.26091 4.8873 6.18447 4.68671 6.03156 4.53196C5.87865 4.37733 5.66089 4.30002 5.3787 4.30002C5.22167 4.30002 5.05566 4.33165 4.87996 4.39486C4.70427 4.45789 4.52059 4.53384 4.32843 4.62253L4.24999 4.98538C4.30725 4.96137 4.37545 4.93554 4.45525 4.90881C4.53469 4.88218 4.61263 4.86841 4.68846 4.86841C4.84328 4.86841 4.94756 4.89834 5.00221 4.95728C5.05687 5.01639 5.08432 5.12152 5.08432 5.27182C5.08432 5.35494 5.07563 5.44727 5.05762 5.54763C5.03985 5.64861 5.01767 5.75539 4.99157 5.86809L4.69824 7.04504C4.67215 7.16872 4.65308 7.27938 4.64108 7.37763C4.62919 7.47576 4.62347 7.57208 4.62347 7.66572C4.62347 7.90762 4.70231 8.10702 4.85994 8.26438C5.01757 8.42111 5.23859 8.50002 5.52273 8.50002C5.70777 8.50002 5.87016 8.4726 6.00993 8.41747C6.14955 8.36252 6.33704 8.28259 6.57175 8.17756Z"
    fill="CurrentColor" />
  <path
    d="M6.64999 3.10002C6.64999 3.43139 6.38136 3.70002 6.04999 3.70002C5.71862 3.70002 5.44999 3.43139 5.44999 3.10002C5.44999 2.76865 5.71862 2.50002 6.04999 2.50002C6.38136 2.50002 6.64999 2.76865 6.64999 3.10002Z"
    fill="CurrentColor" />
</svg>
