<svg width="12" height="12" viewBox="0 0 12 12" fill="none" xmlns="http://www.w3.org/2000/svg">
<path d="M4.00098 3.5C4.00703 2.41249 4.05526 1.82353 4.43945 1.43934C4.87879 1 5.58589 1 7.00011 1H7.50011C8.91432 1 9.62143 1 10.0608 1.43934C10.5001 1.87868 10.5001 2.58579 10.5001 4V8C10.5001 9.41421 10.5001 10.1213 10.0608 10.5607C9.62143 11 8.91432 11 7.50011 11H7.00011C5.58589 11 4.87879 11 4.43945 10.5607C4.05526 10.1765 4.00703 9.58751 4.00098 8.5" stroke="#006FBA" stroke-linecap="round"/>
<path d="M4 9.75C2.82149 9.75 2.23223 9.75 1.86612 9.38388C1.5 9.01777 1.5 8.42851 1.5 7.25V4.75C1.5 3.57149 1.5 2.98223 1.86612 2.61612C2.23223 2.25 2.82149 2.25 4 2.25" stroke="#006FBA"/>
<path d="M7.5 6L3 6M3 6L4 7M3 6L4 5" stroke="#006FBA" stroke-linecap="round" stroke-linejoin="round"/>
</svg>
