<svg width="12" height="12" viewBox="0 0 12 12" fill="none" xmlns="http://www.w3.org/2000/svg">
<path d="M4 8C4 9.41421 4 10.1213 4.43934 10.5607C4.87868 11 5.58579 11 7 11H7.5C8.91421 11 9.62132 11 10.0607 10.5607C10.5 10.1213 10.5 9.41421 10.5 8V4C10.5 2.58579 10.5 1.87868 10.0607 1.43934C9.62132 1 8.91421 1 7.5 1H7C5.58579 1 4.87868 1 4.43934 1.43934C4 1.87868 4 2.58579 4 4" stroke="#006FBA" stroke-linecap="round"/>
<path d="M4 9.75C2.82149 9.75 2.23223 9.75 1.86612 9.38388C1.5 9.01777 1.5 8.42851 1.5 7.25V4.75C1.5 3.57149 1.5 2.98223 1.86612 2.61612C2.23223 2.25 2.82149 2.25 4 2.25" stroke="#006FBA"/>
<path d="M3 6L7.5 6M7.5 6L6.25 7.25M7.5 6L6.25 4.75" stroke="#006FBA" stroke-linecap="round" stroke-linejoin="round"/>
</svg>
