<svg width="16" height="16" viewBox="0 0 16 16" fill="none" xmlns="http://www.w3.org/2000/svg">
<path d="M9.58872 2V3.4916C9.58872 4.5404 9.58872 5.0648 9.72312 5.5682C9.85627 6.0722 10.1188 6.5342 10.6433 7.4582L11.3534 8.711C12.6898 11.0666 13.3581 12.245 12.8099 13.118L12.8011 13.1312C12.2454 14 10.8302 14 8.00098 14C5.17179 14 3.75656 14 3.20023 13.1312L3.1921 13.118C2.64389 12.245 3.31212 11.0666 4.64858 8.711L5.35869 7.4582C5.88377 6.5342 6.14506 6.0722 6.27883 5.5682C6.4126 5.0642 6.4126 4.5404 6.4126 3.4922V2M5.50059 2H10.5014" stroke="currentColor" stroke-linecap="round" stroke-linejoin="round"/>
<path d="M5.1875 7.73207C5.8126 7.04027 6.81275 7.53887 8.00044 8.18927C9.56318 9.04487 10.5008 8.38847 10.8134 7.76747" stroke="currentColor" stroke-linecap="round" stroke-linejoin="round"/>
</svg>
