<svg width="14" height="18" viewBox="0 0 14 18" fill="none" xmlns="http://www.w3.org/2000/svg">
  <path d="M9 15C9 16.1 8.1 17 7 17C6.45333 17 5.94667 16.7733 5.58667 16.4133C5.22667 16.0533 5 15.5467 5 15" stroke="CurrentColor" stroke-miterlimit="10"/>
  <path d="M7.01849 3C4.54257 3 2.53041 4.91346 2.53041 7.26793V9.32365C2.53041 9.75756 2.33593 10.4191 2.10404 10.789L1.24383 12.1476C0.712738 12.987 1.07926 13.9188 2.05168 14.2318C5.27562 15.2561 8.75389 15.2561 11.9778 14.2318C12.8829 13.9472 13.2794 12.9301 12.7857 12.1476L11.9255 10.789C11.7011 10.4191 11.5066 9.75756 11.5066 9.32365V7.26793C11.5066 4.92057 9.48694 3 7.01849 3Z" stroke="CurrentColor" stroke-miterlimit="10"/>
  <path d="M5.49934 3.49688L5.48687 3.07023C5.46718 2.39702 5.52749 1.63976 6.09066 1.27038C6.35155 1.09926 6.66367 1 6.9987 1C7.35984 1 7.69436 1.11534 7.9668 1.31169C8.47378 1.67709 8.52639 2.37253 8.49934 2.99688V2.99688" stroke="CurrentColor" stroke-miterlimit="10" stroke-linejoin="round"/>
</svg>

