<svg width="20" height="20" viewBox="0 0 20 20" fill="none" xmlns="http://www.w3.org/2000/svg">
<g clip-path="url(#clip0_188_32630)">
  <path d="M1.66797 8.33366C1.66797 5.19096 1.66797 3.61961 2.75276 2.6433C3.83755 1.66699 5.58349 1.66699 9.07538 1.66699H10.9272C14.4191 1.66699 16.1651 1.66699 17.2498 2.6433C18.3346 3.61961 18.3346 5.19096 18.3346 8.33366V11.667C18.3346 14.8097 18.3346 16.381 17.2498 17.3573C16.1651 18.3337 14.4191 18.3337 10.9272 18.3337H9.07538C5.58349 18.3337 3.83755 18.3337 2.75276 17.3573C1.66797 16.381 1.66797 14.8097 1.66797 11.667V8.33366Z" stroke="#B3BCC2" stroke-width="1.5"/>
  <path d="M7.91797 7.50033C7.91797 6.25033 8.7513 5.41699 10.0013 5.41699C11.2513 5.41699 12.0846 6.25033 12.0846 7.50033C12.0846 8.75033 10.0013 9.58366 10.0013 10.8337V11.2503" stroke="#B3BCC2" stroke-width="1.5" stroke-miterlimit="3.99933" stroke-linecap="round"/>
  <path d="M9.75 14.25V14.25C9.75 14.3881 9.86193 14.5 10 14.5V14.5C10.1381 14.5 10.25 14.3881 10.25 14.25V14.25C10.25 14.1119 10.1381 14 10 14V14C9.86193 14 9.75 14.1119 9.75 14.25V14.25ZM9.75 14.25H10.01H10" stroke="#B3BCC2" stroke-width="1.5" stroke-linecap="round" stroke-linejoin="round"/>
</g>
<defs>
  <clipPath id="clip0_188_32630">
    <rect width="20" height="20" rx="5" fill="white"/>
  </clipPath>
</defs>
</svg>
