<svg width="20" height="20" viewBox="0 0 20 20" fill="none" xmlns="http://www.w3.org/2000/svg">
  <circle cx="10" cy="10" r="2.5" stroke="CurrentColor"/>
  <path d="M11.4764 1.79679C11.1701 1.66992 10.7818 1.66992 10.0053 1.66992C9.22871 1.66992 8.84043 1.66992 8.53414 1.79679C8.12576 1.96595 7.8013 2.2904 7.63215 2.69878C7.55493 2.88521 7.52471 3.10201 7.51288 3.41825C7.4955 3.88299 7.25717 4.31317 6.85441 4.5457C6.45165 4.77823 5.95995 4.76954 5.54879 4.55222C5.26899 4.40434 5.06613 4.32211 4.86607 4.29577C4.42782 4.23807 3.98461 4.35683 3.63392 4.62592C3.37091 4.82774 3.17677 5.164 2.78848 5.83653C2.4002 6.50906 2.20606 6.84532 2.16278 7.17401C2.10509 7.61226 2.22385 8.05547 2.49294 8.40615C2.61576 8.56622 2.78838 8.70078 3.05628 8.86911C3.45012 9.11658 3.70353 9.53814 3.70351 10.0033C3.70348 10.4684 3.45008 10.8899 3.05628 11.1373C2.78833 11.3057 2.61569 11.4402 2.49286 11.6003C2.22377 11.951 2.10501 12.3942 2.1627 12.8324C2.20597 13.1611 2.40012 13.4974 2.7884 14.1699C3.17669 14.8425 3.37083 15.1787 3.63384 15.3805C3.98453 15.6496 4.42774 15.7684 4.86599 15.7107C5.06603 15.6843 5.26889 15.6021 5.54866 15.4543C5.95985 15.2369 6.45159 15.2282 6.85437 15.4608C7.25716 15.6933 7.4955 16.1235 7.51289 16.5883C7.52471 16.9045 7.55493 17.1213 7.63215 17.3077C7.8013 17.7161 8.12576 18.0406 8.53414 18.2097C8.84043 18.3366 9.22871 18.3366 10.0053 18.3366C10.7818 18.3366 11.1701 18.3366 11.4764 18.2097C11.8848 18.0406 12.2093 17.7161 12.3784 17.3077C12.4556 17.1213 12.4859 16.9045 12.4977 16.5882C12.5151 16.1235 12.7534 15.6933 13.1561 15.4608C13.5589 15.2282 14.0506 15.2369 14.4619 15.4542C14.7416 15.6021 14.9445 15.6843 15.1445 15.7106C15.5827 15.7683 16.026 15.6496 16.3766 15.3805C16.6396 15.1787 16.8338 14.8424 17.2221 14.1699C17.6104 13.4973 17.8045 13.1611 17.8478 12.8324C17.9055 12.3941 17.7867 11.9509 17.5176 11.6002C17.3948 11.4402 17.2222 11.3056 16.9542 11.1373C16.5604 10.8898 16.307 10.4683 16.3071 10.0032C16.3071 9.53813 16.5605 9.11666 16.9542 8.86925C17.2222 8.70088 17.3949 8.5663 17.5177 8.40621C17.7868 8.05553 17.9056 7.61231 17.8479 7.17407C17.8046 6.84538 17.6104 6.50912 17.2222 5.83659C16.8339 5.16406 16.6397 4.8278 16.3767 4.62598C16.026 4.35689 15.5828 4.23813 15.1446 4.29583C14.9445 4.32216 14.7417 4.40439 14.4619 4.55225C14.0507 4.76958 13.559 4.77827 13.1562 4.54572C12.7534 4.31318 12.5151 3.88297 12.4977 3.4182C12.4858 3.10199 12.4556 2.8852 12.3784 2.69878C12.2093 2.2904 11.8848 1.96595 11.4764 1.79679Z" stroke="CurrentColor"/>
</svg>
