<svg width="20" height="20" viewBox="0 0 13 12" fill="none" xmlns="http://www.w3.org/2000/svg">
  <path d="M8 3.5C7.99348 2.41249 7.94154 1.82353 7.52774 1.43934C7.05454 1 6.29294 1 4.76973 1L4.2312 1C2.708 1 1.9464 1 1.4732 1.43934C0.999999 1.87868 1 2.58579 1 4L0.999999 8C0.999999 9.41421 0.999999 10.1213 1.4732 10.5607C1.9464 11 2.708 11 4.2312 11L4.76973 11C6.29294 11 7.05454 11 7.52774 10.5607C7.94154 10.1765 7.99348 9.58751 8 8.5" stroke="#B3BDC2" stroke-linecap="round"/>
  <path d="M5 6L12 6M12 6L10.1154 4M12 6L10.1154 8" stroke="#B3BDC2" stroke-linecap="round" stroke-linejoin="round"/>
</svg>
