<svg width="12" height="12" viewBox="0 0 12 12" fill="none" xmlns="http://www.w3.org/2000/svg">
<g clip-path="url(#clip0_7949_44323)">
<path d="M7.69647 2.02878L7.36199 2.40042V2.40042L7.69647 2.02878ZM9.67586 3.81023L9.34138 4.18187L9.67586 3.81023ZM10.827 5.079L10.3702 5.28242V5.28242L10.827 5.079ZM1.58579 10.4162L1.93934 10.0626L1.93934 10.0626L1.58579 10.4162ZM10.4142 10.4162L10.0607 10.0626L10.0607 10.0626L10.4142 10.4162ZM7 10.502H5V11.502H7V10.502ZM1.5 7.00195V5.00195H0.5V7.00195H1.5ZM10.5 6.7834V7.00195H11.5V6.7834H10.5ZM7.36199 2.40042L9.34138 4.18187L10.0103 3.43858L8.03095 1.65713L7.36199 2.40042ZM11.5 6.7834C11.5 5.95026 11.5101 5.3838 11.2837 4.87558L10.3702 5.28242C10.4899 5.55109 10.5 5.86193 10.5 6.7834H11.5ZM9.34138 4.18187C10.0263 4.7983 10.2506 5.01375 10.3702 5.28242L11.2837 4.87558C11.0574 4.36736 10.6296 3.99592 10.0103 3.43858L9.34138 4.18187ZM5.0149 1.50195C5.81526 1.50195 6.08612 1.50967 6.32548 1.60152L6.68374 0.667902C6.23117 0.494234 5.73953 0.501953 5.0149 0.501953V1.50195ZM8.03095 1.65713C7.49493 1.17471 7.13624 0.841543 6.68374 0.667902L6.32548 1.60152C6.56491 1.6934 6.77015 1.86777 7.36199 2.40042L8.03095 1.65713ZM5 10.502C4.04306 10.502 3.37565 10.5009 2.87208 10.4332C2.3829 10.3674 2.12385 10.2471 1.93934 10.0626L1.23223 10.7697C1.63351 11.171 2.13876 11.3436 2.73883 11.4243C3.32452 11.503 4.07133 11.502 5 11.502V10.502ZM0.5 7.00195C0.5 7.93063 0.498938 8.67743 0.577682 9.26312C0.658359 9.86319 0.830955 10.3684 1.23223 10.7697L1.93934 10.0626C1.75483 9.8781 1.63453 9.61906 1.56876 9.12987C1.50106 8.62631 1.5 7.9589 1.5 7.00195H0.5ZM7 11.502C7.92867 11.502 8.67548 11.503 9.26117 11.4243C9.86124 11.3436 10.3665 11.171 10.7678 10.7697L10.0607 10.0626C9.87615 10.2471 9.6171 10.3674 9.12792 10.4332C8.62435 10.5009 7.95694 10.502 7 10.502V11.502ZM10.5 7.00195C10.5 7.9589 10.4989 8.62631 10.4312 9.12987C10.3655 9.61906 10.2452 9.8781 10.0607 10.0626L10.7678 10.7697C11.169 10.3684 11.3416 9.86319 11.4223 9.26312C11.5011 8.67743 11.5 7.93063 11.5 7.00195H10.5ZM1.5 5.00195C1.5 4.04501 1.50106 3.3776 1.56876 2.87403C1.63453 2.38485 1.75483 2.1258 1.93934 1.94129L1.23223 1.23419C0.830955 1.63546 0.65836 2.14071 0.577682 2.74079C0.498938 3.32647 0.5 4.07328 0.5 5.00195H1.5ZM5.0149 0.501953C4.08121 0.501953 3.33085 0.5009 2.74285 0.579595C2.14085 0.660165 1.6339 0.832519 1.23223 1.23419L1.93934 1.94129C2.12346 1.75717 2.38329 1.63663 2.87551 1.57076C3.38173 1.50301 4.05303 1.50195 5.0149 1.50195V0.501953Z" fill="#006FBA"/>
<path d="M3 7.24805H7" stroke="#006FBA" stroke-linecap="round"/>
<path d="M3 9H5.75" stroke="#006FBA" stroke-linecap="round"/>
<path d="M6.5 1.24805V2.49805C6.5 3.67656 6.5 4.26581 6.86612 4.63193C7.23223 4.99805 7.82149 4.99805 9 4.99805H11" stroke="#006FBA"/>
</g>
<defs>
<clipPath id="clip0_7949_44323">
<rect width="12" height="12" fill="white"/>
</clipPath>
</defs>
</svg>
