<svg width="12" height="12" viewBox="0 0 12 12" fill="none" xmlns="http://www.w3.org/2000/svg">
  <g clip-path="url(#clip0_5967_138932)">
    <path d="M7.5 6C7.5 6.82843 6.82843 7.5 6 7.5C5.17157 7.5 4.5 6.82843 4.5 6C4.5 5.17157 5.17157 4.5 6 4.5C6.82843 4.5 7.5 5.17157 7.5 6Z" stroke="CurrentColor"/>
    <path d="M6.88585 1.07807C6.70208 1.00195 6.46911 1.00195 6.00317 1.00195C5.53723 1.00195 5.30426 1.00195 5.12048 1.07807C4.87546 1.17957 4.68078 1.37424 4.57929 1.61927C4.53296 1.73112 4.51483 1.8612 4.50773 2.05095C4.4973 2.32979 4.3543 2.5879 4.11265 2.72742C3.87099 2.86694 3.57597 2.86172 3.32927 2.73133C3.1614 2.6426 3.03968 2.59326 2.91964 2.57746C2.65669 2.54284 2.39076 2.6141 2.18035 2.77555C2.02255 2.89664 1.90606 3.0984 1.67309 3.50192C1.44012 3.90544 1.32363 4.10719 1.29767 4.30441C1.26305 4.56735 1.33431 4.83328 1.49576 5.04369C1.56946 5.13973 1.67303 5.22047 1.83377 5.32147C2.07007 5.46995 2.22212 5.72288 2.2221 6.00196C2.22209 6.28102 2.07005 6.53392 1.83377 6.68238C1.673 6.78339 1.56941 6.86413 1.49571 6.96018C1.33426 7.17059 1.263 7.43652 1.29762 7.69947C1.32358 7.89668 1.44007 8.09844 1.67304 8.50195C1.90601 8.90547 2.0225 9.10723 2.1803 9.22832C2.39072 9.38977 2.65665 9.46103 2.91959 9.42641C3.03962 9.41061 3.16133 9.36127 3.32919 9.27255C3.57591 9.14216 3.87095 9.13694 4.11262 9.27647C4.35429 9.416 4.4973 9.67412 4.50773 9.95298C4.51483 10.1427 4.53296 10.2728 4.57929 10.3846C4.68078 10.6297 4.87546 10.8243 5.12048 10.9258C5.30426 11.002 5.53723 11.002 6.00317 11.002C6.46911 11.002 6.70208 11.002 6.88585 10.9258C7.13088 10.8243 7.32555 10.6297 7.42705 10.3846C7.47338 10.2728 7.49151 10.1427 7.49861 9.95294C7.50903 9.6741 7.65202 9.416 7.89366 9.27647C8.13533 9.13692 8.43039 9.14213 8.67711 9.27253C8.84496 9.36124 8.96667 9.41057 9.08669 9.42638C9.34964 9.46099 9.61557 9.38974 9.82598 9.22828C9.98379 9.10719 10.1003 8.90544 10.3332 8.50192C10.5662 8.0984 10.6827 7.89664 10.7087 7.69943C10.7433 7.43648 10.672 7.17056 10.5106 6.96014C10.4369 6.8641 10.3333 6.78336 10.1725 6.68235C9.93625 6.53389 9.78422 6.28097 9.78423 6.00191C9.78425 5.72288 9.93628 5.46999 10.1725 5.32155C10.3333 5.22053 10.4369 5.13978 10.5106 5.04373C10.6721 4.83332 10.7433 4.56739 10.7087 4.30444C10.6828 4.10723 10.5663 3.90547 10.3333 3.50195C10.1003 3.09844 9.98384 2.89668 9.82603 2.77559C9.61562 2.61413 9.34969 2.54288 9.08674 2.5775C8.96672 2.5933 8.845 2.64263 8.67714 2.73135C8.43043 2.86175 8.13538 2.86696 7.89371 2.72743C7.65204 2.58791 7.50904 2.32978 7.49861 2.05092C7.49151 1.86119 7.47338 1.73112 7.42705 1.61927C7.32555 1.37424 7.13088 1.17957 6.88585 1.07807Z" stroke="CurrentColor"/>
  </g>
  <defs>
    <clipPath id="clip0_5967_138932">
      <rect width="12" height="12" rx="5" fill="white"/>
    </clipPath>
  </defs>
</svg>
